<svg xmlns="http://www.w3.org/2000/svg" width="25.189" height="24.545" viewBox="0 0 25.189 24.545">
  <path id="Icon_awesome-arrow-up" data-name="Icon awesome-arrow-up" d="M1.644,14.479.4,13.231a1.344,1.344,0,0,1,0-1.906L11.32.4a1.344,1.344,0,0,1,1.906,0L24.149,11.32a1.344,1.344,0,0,1,0,1.906L22.9,14.474a1.351,1.351,0,0,1-1.928-.022L14.524,7.682V23.84a1.346,1.346,0,0,1-1.349,1.349h-1.8a1.346,1.346,0,0,1-1.349-1.349V7.682L3.573,14.457a1.341,1.341,0,0,1-1.928.022Z" transform="translate(0 24.545) rotate(-90)" fill="#fff"/>
</svg>
