<svg xmlns="http://www.w3.org/2000/svg" width="16.714" height="14.468" viewBox="0 0 14.714 14.468">
  <path id="Subtraction_6" data-name="Subtraction 6" d="M26.1,26.741a7.235,7.235,0,1,1,7.357-7.234A7.3,7.3,0,0,1,26.1,26.741Zm-.681-6.88h1.066l.689,2.646h1.064l.61-2.646h1.392V18.9H29.072l.645-2.8h-1.1l-.572,2.8h-.92l-.7-2.8H25.49l-.71,2.8h-.927l-.578-2.8h-1.1l.645,2.8h-.857v.957h1.077l.61,2.646h1.068l.7-2.645Zm2.208,1.06-.266-1.06h.485l-.217,1.06Zm-3.359-.008h0l-.217-1.051h.486ZM26.239,18.9h-.562l.284-1.068.278,1.067Z" transform="translate(-18.745 -12.272)" fill="#fff"/>
</svg>
