<?xml version="1.0" encoding="iso-8859-1"?>
<!-- Generator: Adobe Illustrator 19.0.0, SVG Export Plug-In . SVG Version: 6.00 Build 0)  -->
<svg version="1.1" id="Layer_1" xmlns="http://www.w3.org/2000/svg" xmlns:xlink="http://www.w3.org/1999/xlink" x="0px" y="0px"
	 viewBox="0 0 512.006 512.006" style="enable-background:new 0 0 512.006 512.006;" xml:space="preserve">
<circle style="fill:#6B7F9E;" cx="256.003" cy="256.003" r="256.003"/>
<g>
	<path style="fill:#5FDC68;" d="M100.785,190.283l95.886-26.121l26.115,95.886l-22.173-12.679l-42.766,74.076h65.817l-43.414,43.771
		l50.862,50.444h-85.793c-30.614,0-56.892-15.174-72.199-41.682c-15.307-26.515-15.307-56.856,0-83.371l50.413-87.318
		L100.785,190.283z"/>
	<path style="fill:#5FDC68;" d="M276.396,435.036l-70.564-69.983l69.983-70.558l0.109,26.951h78.242l-33.708-58.382l63.97,16.857
		l15.131-57.431l39.321,68.112c15.307,26.515,15.307,56.856,0,83.371c-15.307,26.509-41.585,41.682-72.199,41.682h-90.37
		l0.079,19.376L276.396,435.036z"/>
	<path style="fill:#5FDC68;" d="M328.208,98.908l42.881,74.27l23.493-13.696l-25.322,96.098l-96.098-25.322l21.217-12.37
		l-38.37-66.453l-28.059,48.597l-15.949-58.539l-62.632,17.063l34.441-59.647c15.307-26.515,41.585-41.682,72.199-41.682
		S312.907,72.399,328.208,98.908z"/>
</g>
<g>
	<path style="fill:#56BF5D;" d="M212.002,141.492l15.949,58.539l28.059-48.597c-47.41-85.889-105.053,4.384-105.053,4.384
		l-1.58,2.737l62.632-17.063H212.002z"/>
	<path style="fill:#56BF5D;" d="M384.422,279.926l-63.97-16.857l33.708,58.382c65.169,5.231,73.937-49.517,45.4-98.956
		L384.422,279.926z"/>
	<path style="fill:#56BF5D;" d="M180.256,365.216l43.414-43.771h-65.817c-32.43,56.777,8.846,94.215,73.265,94.215L180.256,365.216z
		"/>
</g>
<g>
</g>
<g>
</g>
<g>
</g>
<g>
</g>
<g>
</g>
<g>
</g>
<g>
</g>
<g>
</g>
<g>
</g>
<g>
</g>
<g>
</g>
<g>
</g>
<g>
</g>
<g>
</g>
<g>
</g>
</svg>
