<?xml version="1.0" encoding="iso-8859-1"?>
<!-- Generator: Adobe Illustrator 19.0.0, SVG Export Plug-In . SVG Version: 6.00 Build 0)  -->
<svg version="1.1" id="Layer_1" xmlns="http://www.w3.org/2000/svg" xmlns:xlink="http://www.w3.org/1999/xlink" x="0px" y="0px"
	 viewBox="0 0 512 512" style="enable-background:new 0 0 512 512;" xml:space="preserve">
<polygon style="fill:#57565C;" points="114.464,54.468 114.464,381.277 303.147,490.213 303.147,163.404 "/>
<polygon style="fill:#D8D8DA;" points="249.833,155.086 249.809,372.407 294.975,398.483 294.975,180.465 "/>
<path style="fill:#9CDD03;" d="M265.042,264.01c-3.398-1.961-6.174-0.354-6.17,3.571c0.004,3.926,2.785,8.745,6.177,10.709
	c3.393,1.964,6.169,0.357,6.169-3.571C271.219,270.791,268.439,265.972,265.042,264.01z"/>
<polygon style="fill:#2487FF;" points="133.332,87.148 133.332,302.602 241.596,367.527 241.596,149.654 "/>
<polygon style="fill:#3E3D43;" points="133.332,326.809 133.332,370.967 241.596,432.889 241.596,389.296 "/>
<polygon style="fill:#77767E;" points="114.464,54.468 208.805,0 397.488,108.936 303.147,163.404 "/>
<g>
	<polygon style="fill:#3E3D43;" points="303.147,490.213 397.488,435.744 397.488,108.936 303.147,163.404 	"/>
	<polygon style="fill:#3E3D43;" points="114.464,381.277 114.464,403.064 133.332,413.958 133.332,392.171 	"/>
</g>
<g>
	<polygon style="fill:#2E2E30;" points="152.201,403.064 133.332,413.958 133.332,392.171 	"/>
	<polygon style="fill:#2E2E30;" points="397.536,435.717 397.536,457.504 378.668,468.398 378.668,446.61 	"/>
</g>
<g>
	<polygon style="fill:#3E3D43;" points="359.8,457.504 378.668,468.398 378.668,446.61 	"/>
	<polygon style="fill:#3E3D43;" points="284.278,479.319 284.397,501.107 303.147,512 303.147,490.213 	"/>
</g>
<polygon style="fill:#2E2E30;" points="322.015,479.319 321.896,501.107 303.147,512 303.147,490.213 "/>
<polygon style="fill:#ACABB1;" points="258.86,181.148 258.86,222.85 285.946,238.487 285.946,196.786 "/>
<path style="fill:#898890;" d="M277.44,202.943l8.505,4.869v-1.205l-8.505-4.869v-9.864l-1.045-0.603v9.869l-7.985-4.571v-9.908
	l-1.045-0.603v9.913l-8.505-4.869v1.205l8.505,4.869v9.182l-8.505-4.87v1.205l8.505,4.87v9.182l-8.505-4.87v1.205l8.505,4.87v9.81
	l1.045,0.603v-9.816l7.985,4.571v9.854l0.855,0.493h0.19v-9.75l8.505,4.87v-1.205l-8.505-4.87v-9.182l8.505,4.87v-1.205l-8.505-4.87
	V202.943z M276.396,221.914l-7.985-4.571v-9.182l7.985,4.571V221.914z M276.396,211.528l-7.985-4.571v-9.182l7.985,4.571V211.528z"
	/>
<polygon style="fill:#FFFFFF;" points="258.767,233.329 258.767,254.179 285.946,269.763 285.946,248.912 "/>
<path style="fill:#CD2A01;" d="M279.768,273.092c-3.398-1.961-6.174-0.354-6.17,3.571c0.004,3.926,2.785,8.745,6.177,10.709
	s6.17,0.357,6.17-3.571C285.946,279.872,283.166,275.053,279.768,273.092z"/>
<g>
</g>
<g>
</g>
<g>
</g>
<g>
</g>
<g>
</g>
<g>
</g>
<g>
</g>
<g>
</g>
<g>
</g>
<g>
</g>
<g>
</g>
<g>
</g>
<g>
</g>
<g>
</g>
<g>
</g>
</svg>
