<svg xmlns="http://www.w3.org/2000/svg" width="29.054" height="24.129" viewBox="0 0 29.054 24.129">
  <path id="Subtraction_4" data-name="Subtraction 4" d="M20.852,24.129a8.1,8.1,0,0,1-8.2-7.966,8.1,8.1,0,0,1,8.2-7.967,8.1,8.1,0,0,1,8.2,7.967A8.1,8.1,0,0,1,20.852,24.129Zm-.642-6.792h1.283l.988,3.793H23.9l.876-3.793H27V15.974H25.089l.779-3.376H24.4l-.689,3.376H22.322L21.474,12.6H20.232l-.858,3.376h-1.4l-.7-3.376H15.809l.778,3.376H14.9v1.363h2l.875,3.793H19.2l1.01-3.792ZM8.021,19.423a15.557,15.557,0,0,1-5.93-1.043C.782,17.818,0,17.1,0,16.448V14.739a8.183,8.183,0,0,0,1.4.759,17.287,17.287,0,0,0,6.617,1.184,20.721,20.721,0,0,0,2.933-.2,9.344,9.344,0,0,0,.472,2.64A18.535,18.535,0,0,1,8.021,19.423Zm15.064-.407-.421-1.679h.766l-.343,1.679ZM18.6,19h0l-.345-1.667h.77Zm2.535-3.03h-.566l.286-1.074.28,1.072ZM8.021,15.028a15.541,15.541,0,0,1-5.93-1.043C.782,13.424,0,12.7,0,12.054V10.345a8.124,8.124,0,0,0,1.4.76,17.3,17.3,0,0,0,6.617,1.184,20.059,20.059,0,0,0,3.95-.379,9.315,9.315,0,0,0-.922,2.88A18.673,18.673,0,0,1,8.021,15.028Zm0-4.394a15.557,15.557,0,0,1-5.93-1.043C.782,9.029,0,8.307,0,7.659V5.951a8.183,8.183,0,0,0,1.4.759A17.287,17.287,0,0,0,8.021,7.894a17.3,17.3,0,0,0,6.618-1.184,8.206,8.206,0,0,0,1.4-.759V7.756a9.89,9.89,0,0,0-2.6,2.036A16.413,16.413,0,0,1,8.021,10.634Zm0-4.684a15.557,15.557,0,0,1-5.93-1.043C.782,4.346,0,3.624,0,2.975S.782,1.6,2.091,1.043A15.557,15.557,0,0,1,8.021,0a15.55,15.55,0,0,1,5.93,1.043c1.31.562,2.092,1.284,2.092,1.932s-.782,1.371-2.092,1.932A15.55,15.55,0,0,1,8.021,5.951Z" fill="#fff"/>
</svg>
